<?xml version="1.0" standalone="no"?>
<!DOCTYPE svg PUBLIC "-//W3C//DTD SVG 20010904//EN"
 "http://www.w3.org/TR/2001/REC-SVG-20010904/DTD/svg10.dtd">
<svg version="1.0" xmlns="http://www.w3.org/2000/svg"
 width="330.000000pt" height="330.000000pt" viewBox="0 0 330.000000 330.000000"
 preserveAspectRatio="xMidYMid meet">

<g transform="translate(0.000000,330.000000) scale(0.100000,-0.100000)"
fill="#000000" stroke="none">
<path d="M117 3265 c-22 -7 -50 -24 -64 -37 -56 -52 -53 52 -53 -1627 0 -1155
3 -1557 12 -1576 10 -22 17 -25 62 -25 40 1 47 3 33 11 -49 29 -47 -43 -47
1589 0 1340 2 1524 15 1550 33 64 -76 60 1595 60 1671 0 1562 4 1595 -60 13
-26 15 -210 15 -1550 0 -1632 2 -1560 -47 -1589 -14 -8 -9 -10 25 -11 l42 0 0
1608 c0 1578 0 1609 -19 1626 -51 46 -6 45 -1611 45 -1258 0 -1522 -2 -1553
-14z"/>
<path d="M205 3111 c-46 -27 -69 -69 -69 -122 0 -149 198 -192 267 -59 20 39
16 99 -9 138 -38 58 -130 79 -189 43z m96 -51 c19 0 49 -41 49 -69 0 -45 -30
-75 -75 -75 -83 0 -104 102 -30 142 11 7 26 9 33 7 8 -3 18 -5 23 -5z"/>
<path d="M2993 3110 c-41 -25 -60 -55 -68 -105 -16 -110 115 -194 212 -135 46
28 67 65 67 119 0 110 -118 178 -211 121z m137 -80 c29 -54 -5 -114 -65 -114
-82 0 -106 108 -32 139 36 15 82 3 97 -25z"/>
<path d="M531 2763 c-79 -82 -150 -162 -157 -180 -18 -42 -19 -413 -1 -460 15
-38 368 -413 405 -430 34 -15 337 -17 380 -2 28 9 291 275 387 389 l35 42 0
226 c-1 159 -4 233 -13 249 -7 11 -76 87 -154 167 l-142 146 -298 0 -298 0
-144 -147z m830 -40 c70 -71 134 -139 143 -153 13 -21 16 -56 16 -222 l0 -198
-64 -70 c-36 -39 -120 -129 -188 -200 l-123 -130 -171 0 -172 0 -186 195 -186
195 0 213 1 212 137 143 138 142 264 0 265 0 126 -127z"/>
<path d="M732 2558 c-8 -8 -12 -55 -12 -144 0 -147 5 -158 62 -152 l33 3 3
144 c2 109 -1 146 -10 153 -19 12 -62 10 -76 -4z"/>
<path d="M1132 2558 c-8 -8 -12 -55 -12 -144 0 -147 5 -158 62 -152 l33 3 3
144 c2 109 -1 146 -10 153 -19 12 -62 10 -76 -4z"/>
<path d="M930 2143 c-47 -24 -61 -55 -58 -133 l3 -65 98 -3 97 -3 0 79 c0 70
-3 82 -25 106 -13 14 -31 26 -39 26 -8 0 -20 2 -28 5 -7 3 -29 -3 -48 -12z"/>
<path d="M1927 2764 c-78 -80 -147 -156 -154 -167 -9 -16 -12 -90 -13 -249 l0
-226 27 -34 c84 -102 368 -388 395 -397 17 -6 104 -11 192 -11 135 0 166 3
193 18 38 21 384 384 400 420 18 40 17 422 -1 465 -7 18 -78 98 -157 180
l-144 148 -298 -1 -298 0 -142 -146z m844 -56 l138 -143 1 -213 0 -213 -186
-194 -187 -195 -171 0 -171 0 -123 130 c-68 71 -152 161 -188 200 l-64 70 0
198 c0 166 3 201 16 222 9 14 73 82 143 153 l126 127 264 0 265 0 137 -142z"/>
<path d="M2132 2562 c-9 -7 -12 -44 -10 -153 l3 -144 33 -3 c57 -6 62 5 62
152 0 89 -4 136 -12 144 -14 14 -57 16 -76 4z"/>
<path d="M2532 2562 c-9 -7 -12 -44 -10 -153 l3 -144 33 -3 c57 -6 62 5 62
152 0 89 -4 136 -12 144 -14 14 -57 16 -76 4z"/>
<path d="M2330 2149 c-47 -19 -60 -47 -60 -132 l0 -78 98 3 97 3 3 61 c2 33
-2 72 -7 87 -18 46 -84 75 -131 56z"/>
<path d="M685 1510 c-11 -4 -86 -75 -167 -157 -172 -176 -161 -144 -156 -434
l3 -196 37 -44 c20 -24 113 -122 205 -217 l168 -172 200 0 200 0 83 87 c46 49
137 145 203 215 l119 127 0 236 0 236 -142 151 c-82 86 -156 157 -175 164 -25
11 -95 14 -295 13 -145 0 -272 -4 -283 -9z m572 -77 c11 -10 75 -75 142 -145
l122 -127 -3 -210 -3 -210 -85 -88 c-47 -49 -131 -137 -188 -196 l-103 -107
-165 0 -164 0 -35 33 c-19 17 -104 106 -190 197 l-155 165 0 210 0 210 136
143 136 142 268 0 c241 0 270 -2 287 -17z"/>
<path d="M732 1158 c-17 -17 -17 -269 0 -286 14 -14 57 -16 76 -4 9 7 12 44
10 153 l-3 144 -35 3 c-19 2 -41 -3 -48 -10z"/>
<path d="M1126 1155 c-3 -9 -6 -74 -6 -144 0 -136 5 -151 49 -151 50 0 52 6
49 161 l-3 144 -41 3 c-31 2 -43 -1 -48 -13z"/>
<path d="M909 732 c-33 -30 -34 -32 -34 -109 l0 -78 95 0 95 0 3 76 c2 68 0
80 -20 104 -15 17 -37 28 -64 32 -36 5 -46 1 -75 -25z"/>
<path d="M2075 1506 c-17 -7 -95 -81 -173 -164 l-142 -151 0 -236 0 -236 119
-127 c65 -70 157 -166 203 -215 l83 -87 200 0 200 0 168 172 c92 95 185 193
205 217 l37 44 3 196 c5 291 17 258 -163 441 l-154 155 -278 2 c-215 2 -285 0
-308 -11z m699 -198 l136 -143 0 -210 0 -210 -187 -198 -186 -197 -168 0 -168
0 -103 107 c-57 59 -141 147 -188 196 l-85 88 -3 209 -3 210 138 144 138 145
272 1 271 0 136 -142z"/>
<path d="M2127 1163 c-4 -3 -7 -70 -7 -149 0 -152 1 -154 54 -154 41 0 46 17
46 151 0 70 -3 134 -6 143 -6 16 -73 23 -87 9z"/>
<path d="M2527 1163 c-4 -3 -7 -70 -7 -149 0 -152 1 -154 54 -154 41 0 46 17
46 155 0 89 -4 135 -12 143 -13 13 -70 17 -81 5z"/>
<path d="M2313 740 c-38 -23 -45 -44 -41 -130 l3 -65 95 0 95 0 0 78 c0 76 -1
80 -33 108 -38 34 -74 37 -119 9z"/>
<path d="M203 330 c-46 -28 -67 -65 -67 -119 0 -110 118 -178 211 -121 41 25
60 55 68 105 16 110 -115 194 -212 135z m130 -72 c33 -39 18 -97 -32 -117 -60
-25 -117 34 -95 98 18 52 90 63 127 19z"/>
<path d="M2989 327 c-89 -59 -87 -182 4 -237 62 -38 144 -20 188 42 28 39 31
113 5 152 -42 65 -134 85 -197 43z m134 -69 c33 -39 18 -97 -32 -117 -60 -25
-117 34 -95 98 18 52 90 63 127 19z"/>
</g>
</svg>
